<svg width="500" height="500" viewBox="0 0 500 500" fill="none" xmlns="http://www.w3.org/2000/svg">
<rect width="500" height="500" fill="white"/>
<rect x="135" y="142" width="229" height="77.86" rx="38.93" fill="#00F9DB"/>
<g clip-path="url(#clip0_11_5)">
<path d="M279.426 159.325C278.666 158.793 277.809 158.416 276.903 158.216C275.997 158.015 275.06 157.995 274.147 158.157C273.233 158.318 272.36 158.658 271.578 159.157C270.796 159.656 270.12 160.305 269.588 161.065L242.731 199.421L225.121 187.392C223.709 186.426 221.97 186.061 220.289 186.376C218.607 186.692 217.119 187.662 216.153 189.075C215.187 190.487 214.821 192.225 215.137 193.907C215.453 195.589 216.423 197.077 217.836 198.043L241.44 214.166C242.168 214.662 242.989 215.003 243.854 215.167C244.719 215.331 245.608 215.315 246.466 215.12C247.382 214.96 248.257 214.621 249.041 214.122C249.825 213.623 250.503 212.975 251.036 212.213L281.167 169.168C282.241 167.631 282.661 165.731 282.334 163.884C282.008 162.038 280.961 160.397 279.425 159.322" fill="white"/>
</g>
<rect x="195.303" y="234.86" width="108.393" height="56.4867" rx="28.2433" fill="#00F9DB"/>
<g clip-path="url(#clip1_11_5)">
<path d="M270.56 246.976C270.02 246.598 269.41 246.33 268.766 246.188C268.122 246.045 267.456 246.031 266.806 246.146C266.156 246.261 265.536 246.502 264.979 246.857C264.423 247.212 263.942 247.673 263.564 248.214L244.466 275.489L231.943 266.935C230.939 266.248 229.703 265.988 228.507 266.213C227.311 266.437 226.253 267.127 225.566 268.132C224.879 269.136 224.619 270.372 224.844 271.568C225.068 272.764 225.758 273.822 226.763 274.509L243.548 285.974C244.065 286.327 244.65 286.57 245.264 286.686C245.879 286.803 246.512 286.792 247.122 286.653C247.773 286.539 248.395 286.298 248.953 285.943C249.511 285.589 249.993 285.127 250.372 284.586L271.798 253.976C272.562 252.883 272.861 251.532 272.628 250.219C272.396 248.906 271.652 247.739 270.56 246.974" fill="white"/>
</g>
<rect x="212.86" y="306.347" width="73.28" height="51.9067" rx="25.9533" fill="#00F9DB"/>
<g clip-path="url(#clip2_11_5)">
<path d="M265.868 320.777C265.462 320.494 265.005 320.293 264.522 320.186C264.039 320.079 263.539 320.068 263.052 320.154C262.565 320.241 262.099 320.422 261.682 320.688C261.265 320.954 260.904 321.3 260.621 321.705L246.297 342.162L236.905 335.746C236.152 335.231 235.225 335.036 234.328 335.205C233.431 335.373 232.637 335.891 232.122 336.644C231.607 337.397 231.412 338.324 231.58 339.221C231.748 340.118 232.266 340.912 233.019 341.427L245.609 350.026C245.996 350.29 246.435 350.472 246.896 350.56C247.357 350.647 247.831 350.639 248.289 350.535C248.777 350.449 249.244 350.268 249.662 350.002C250.08 349.736 250.442 349.39 250.726 348.984L266.796 326.027C267.369 325.207 267.593 324.194 267.419 323.209C267.244 322.224 266.686 321.349 265.867 320.776" fill="white"/>
</g>
<defs>
<clipPath id="clip0_11_5">
<rect width="68.7" height="68.7" fill="white" transform="translate(214.387 146.58)"/>
</clipPath>
<clipPath id="clip1_11_5">
<rect width="48.8533" height="48.8533" fill="white" transform="translate(224.31 237.913)"/>
</clipPath>
<clipPath id="clip2_11_5">
<rect width="36.64" height="36.64" fill="white" transform="translate(231.18 313.98)"/>
</clipPath>
</defs>
</svg>
