<svg width="388" height="292" viewBox="0 0 388 292" fill="none" xmlns="http://www.w3.org/2000/svg">
<path d="M303.348 46.4065H229.676V126.379H303.348V46.4065Z" fill="#E6E6E6"/>
<path d="M253.829 56.3573H241.016V69.1317H253.829V56.3573Z" fill="#A8A8A8"/>
<path d="M244.741 62.8747L246.565 65.6211L249.892 60.6893" stroke="white" stroke-width="3.42983" stroke-linecap="round" stroke-linejoin="round"/>
<path d="M290.476 60.5444H260.794V65.6213H290.476V60.5444Z" fill="white"/>
<path d="M253.829 79.585H241.016V92.3593H253.829V79.585Z" fill="#A8A8A8"/>
<path d="M244.741 86.1028L246.565 88.8491L249.892 83.9173" stroke="white" stroke-width="3.42983" stroke-linecap="round" stroke-linejoin="round"/>
<path d="M290.476 83.7722H260.794V88.8491H290.476V83.7722Z" fill="white"/>
<path d="M253.829 101.285H241.016V114.06H253.829V101.285Z" fill="#A8A8A8"/>
<path d="M244.741 107.793L246.565 110.549L249.892 105.608" stroke="white" stroke-width="3.42983" stroke-linecap="round" stroke-linejoin="round"/>
<path d="M290.476 105.463H260.794V110.54H290.476V105.463Z" fill="white"/>
<path d="M303.348 170.766H229.676V220.693H303.348V170.766Z" fill="#E6E6E6"/>
<path opacity="0.08" d="M229.676 85.9674C229.676 85.9674 256.148 104.341 256.72 126.37H241.016L229.676 85.9674Z" fill="black"/>
<path d="M187.287 87.4857L163.231 106.555C163.231 106.555 140.669 129.116 154.831 143.882C168.993 158.649 189.625 137.065 189.625 137.065L187.287 87.4857Z" fill="#00F9DB"/>
<path opacity="0.08" d="M187.287 87.4857L163.231 106.555C163.231 106.555 140.669 129.116 154.831 143.882C168.993 158.649 189.625 137.065 189.625 137.065L187.287 87.4857Z" fill="black"/>
<path d="M160.945 94.4664L158.764 96.1752L169.857 110.249L172.038 108.541L160.945 94.4664Z" fill="#24285B"/>
<path d="M163.232 106.555C163.232 106.555 166.976 102.146 170.342 103.596C173.708 105.047 172.815 111.719 166.956 111.835C161.098 111.951 163.232 106.555 163.232 106.555Z" fill="#F4A28C"/>
<path opacity="0.45" d="M249.891 245.523C249.921 238.431 217.14 232.544 176.672 232.375C136.205 232.206 103.375 237.819 103.345 244.911C103.315 252.004 136.097 257.89 176.564 258.059C217.032 258.228 249.862 252.616 249.891 245.523Z" fill="#E6E6E6"/>
<path d="M186.618 239.656C186.618 239.656 185.115 242.489 182.37 242.335C179.624 242.18 178.49 244.714 180.876 245.748C183.262 246.783 189.945 244.569 189.945 244.569L190.44 239.579L186.618 239.656Z" fill="#00F9DB"/>
<path d="M198.617 57.9431C198.617 57.9431 198.103 63.6389 199.053 67.4296C199.248 68.1664 199.725 68.7974 200.382 69.1864C201.039 69.5754 201.823 69.6912 202.565 69.5087C203.773 69.2822 204.89 68.7113 205.78 67.8652C206.67 67.0191 207.295 65.9341 207.58 64.7413L209.306 59.7515C209.547 58.7177 209.459 57.6351 209.056 56.653C208.653 55.6708 207.954 54.8377 207.056 54.2684C203.797 51.9669 198.753 54.4618 198.617 57.9431Z" fill="#F4A28C"/>
<path d="M208.967 60.6603L211.877 79.1692L201.527 80.0395L203.574 66.2207L208.967 60.6603Z" fill="#F4A28C"/>
<path d="M204.67 62.8557C204.67 62.8557 204.719 60.6508 206.377 60.8249C208.036 60.999 207.987 64.1805 205.727 64.4706L204.67 62.8557Z" fill="#F4A28C"/>
<path d="M198.481 61.55L196.91 63.7452C196.83 63.8733 196.782 64.018 196.769 64.1679C196.756 64.3178 196.778 64.4687 196.834 64.6086C196.889 64.7485 196.977 64.8736 197.089 64.9738C197.202 65.0741 197.336 65.1467 197.482 65.1861L199.674 65.6019L198.481 61.55Z" fill="#F4A28C"/>
<path opacity="0.31" d="M202.992 69.2283C204.286 68.9081 205.456 68.2153 206.358 67.2363C206.358 67.2363 206.203 70.6692 202.42 74.0054L202.992 69.2283Z" fill="#CE8172"/>
<path d="M213.4 79.1787L200.518 80.2618C200.518 80.2618 175.007 87.7465 176.035 111.671C177.064 135.595 179.382 164.905 179.382 164.905L213.72 169.383C213.72 169.383 270.814 91.9241 213.4 79.1787Z" fill="#00F9DB"/>
<path opacity="0.08" d="M218.842 94.5157C218.842 94.5157 206.707 100.482 207.58 115.026C208.453 129.57 206.018 134.792 190.964 133.11C175.91 131.427 177.5 137.945 177.5 137.945L179.44 164.896L213.778 169.373L216.873 164.896C216.873 164.896 244.343 114.717 218.842 94.5157Z" fill="black"/>
<path d="M179.382 164.905L170.158 172.554C167.672 174.618 165.726 177.253 164.488 180.232C163.25 183.211 162.756 186.446 163.049 189.657C163.342 192.869 164.413 195.961 166.17 198.669C167.927 201.377 170.317 203.618 173.135 205.201L190.819 215.132L196.697 210.868L183.466 199.921C182.613 199.215 181.94 198.317 181.503 197.302C181.066 196.286 180.878 195.181 180.952 194.079C181.027 192.976 181.364 191.907 181.934 190.959C182.504 190.011 183.292 189.212 184.232 188.626L188.946 185.725C191.563 184.087 194.505 183.034 197.57 182.641C202.672 181.993 211.15 179.401 213.72 169.412L179.382 164.905Z" fill="#24285B"/>
<path d="M198.481 50.6132C198.481 50.6132 195.232 58.5332 201.527 59.1714C207.822 59.8096 203.845 64.1129 207.551 64.7414C211.256 65.37 215.495 56.396 211.877 51.8994C208.259 47.4027 200.286 46.9772 198.481 50.6132Z" fill="#24285B"/>
<path d="M213.72 169.383L190.44 239.579L184.62 239.521C184.62 239.521 192.565 192.678 191.701 172.999L213.72 169.383Z" fill="#24285B"/>
<path d="M214.7 99.1963C214.473 97.2632 214.849 95.3073 215.778 93.5953C216.707 91.8834 218.143 90.4988 219.89 89.6305C221.637 88.7622 223.611 88.4525 225.541 88.7436C227.471 89.0347 229.264 89.9124 230.676 91.257C237.34 97.5233 244.382 107.619 246.196 123.033C249.94 154.259 238.921 184.971 190.45 135.353L195.378 129.657C195.378 129.657 219.463 146.242 226.592 143.399C232.063 141.233 216.892 118.788 214.7 99.1963Z" fill="#00F9DB"/>
<path opacity="0.46" d="M214.7 99.1963C214.473 97.2632 214.849 95.3073 215.778 93.5953C216.707 91.8834 218.143 90.4988 219.89 89.6305C221.637 88.7622 223.611 88.4525 225.541 88.7436C227.471 89.0347 229.264 89.9124 230.676 91.257C237.34 97.5233 244.382 107.619 246.196 123.033C249.94 154.259 238.921 184.971 190.45 135.353L195.378 129.657C195.378 129.657 219.463 146.242 226.592 143.399C232.063 141.233 216.892 118.788 214.7 99.1963Z" fill="white"/>
<path opacity="0.58" d="M147.75 234.918C147.75 234.918 156.141 232.665 157.993 224.9C157.993 224.9 145.025 222.231 144.598 235.537L147.75 234.918Z" fill="#00F9DB"/>
<path opacity="0.73" d="M146.732 234.086C146.732 234.086 152.62 224.88 147.508 216.235C147.508 216.235 137.604 222.443 141.94 234.086H146.732Z" fill="#00F9DB"/>
<path d="M145.219 234.086C145.219 234.086 142.163 224.329 132.822 222.482C132.822 222.482 131.047 228.797 138.826 234.086H145.219Z" fill="#00F9DB"/>
<path d="M151.291 233.893L149.555 245.468H138.856L137.323 233.893H151.291Z" fill="#24285B"/>
<path d="M188.737 105.763L163.216 108.982L167.929 146.119L193.45 142.9L188.737 105.763Z" fill="#FFD200"/>
<path d="M191.759 133.883C191.759 133.883 181.788 129.048 184.213 125.47C186.638 121.892 195.416 129.657 195.416 129.657L191.759 133.883Z" fill="#F4A28C"/>
<path d="M117.108 88.6557C127.86 88.6557 136.576 79.9664 136.576 69.2476C136.576 58.5287 127.86 49.8394 117.108 49.8394C106.356 49.8394 97.64 58.5287 97.64 69.2476C97.64 79.9664 106.356 88.6557 117.108 88.6557Z" fill="#E6E6E6"/>
<path d="M117.108 82.9696C124.71 82.9696 130.873 76.826 130.873 69.2476C130.873 61.6691 124.71 55.5255 117.108 55.5255C109.506 55.5255 103.344 61.6691 103.344 69.2476C103.344 76.826 109.506 82.9696 117.108 82.9696Z" fill="white"/>
<path d="M117.108 61.3662V70.5819L124.693 69.4989" stroke="#C1C1C1" stroke-width="3.42983" stroke-linecap="round" stroke-linejoin="round"/>
<path d="M117.108 141.214C127.86 141.214 136.576 132.524 136.576 121.805C136.576 111.087 127.86 102.397 117.108 102.397C106.356 102.397 97.64 111.087 97.64 121.805C97.64 132.524 106.356 141.214 117.108 141.214Z" fill="#E6E6E6"/>
<path d="M117.108 135.527C124.71 135.527 130.873 129.384 130.873 121.805C130.873 114.227 124.71 108.083 117.108 108.083C109.506 108.083 103.344 114.227 103.344 121.805C103.344 129.384 109.506 135.527 117.108 135.527Z" fill="white"/>
<path d="M117.108 113.924V123.14L124.693 122.047" stroke="#C1C1C1" stroke-width="3.42983" stroke-linecap="round" stroke-linejoin="round"/>
<path opacity="0.08" d="M239.483 185.048C241.181 185.048 242.558 183.676 242.558 181.983C242.558 180.29 241.181 178.917 239.483 178.917C237.785 178.917 236.408 180.29 236.408 181.983C236.408 183.676 237.785 185.048 239.483 185.048Z" fill="black"/>
<path opacity="0.08" d="M239.483 198.239C241.181 198.239 242.558 196.866 242.558 195.173C242.558 193.48 241.181 192.108 239.483 192.108C237.785 192.108 236.408 193.48 236.408 195.173C236.408 196.866 237.785 198.239 239.483 198.239Z" fill="black"/>
<path opacity="0.08" d="M239.483 211.429C241.181 211.429 242.558 210.056 242.558 208.363C242.558 206.67 241.181 205.298 239.483 205.298C237.785 205.298 236.408 206.67 236.408 208.363C236.408 210.056 237.785 211.429 239.483 211.429Z" fill="black"/>
<path d="M250.852 181.983H287.188" stroke="white" stroke-width="3.42983" stroke-linecap="round" stroke-linejoin="bevel"/>
<path d="M250.852 195.173H287.188" stroke="white" stroke-width="3.42983" stroke-linecap="round" stroke-linejoin="bevel"/>
<path d="M250.852 208.364H287.188" stroke="white" stroke-width="3.42983" stroke-linecap="round" stroke-linejoin="bevel"/>
<path d="M134.442 167.604H99.7644V194.961H134.442V167.604Z" fill="#E6E6E6"/>
<path d="M134.442 162.459H99.7644V171.501H134.442V162.459Z" fill="#C1C1C1"/>
<path d="M107.806 157.759H104.847V165.254H107.806V157.759Z" fill="#E6E6E6"/>
<path d="M129.262 157.682H126.303V165.176H129.262V157.682Z" fill="#E6E6E6"/>
<path d="M109.607 188.477C109.678 186.581 110.299 185.119 111.468 184.091C112.638 183.063 114.224 182.549 116.226 182.549C117.555 182.549 118.689 182.78 119.629 183.24C120.586 183.701 121.303 184.33 121.782 185.128C122.278 185.925 122.526 186.82 122.526 187.812C122.526 188.982 122.234 189.939 121.649 190.683C121.064 191.41 120.382 191.906 119.602 192.172V192.278C120.612 192.615 121.41 193.173 121.994 193.953C122.579 194.732 122.871 195.734 122.871 196.956C122.871 198.055 122.615 199.03 122.101 199.88C121.604 200.713 120.869 201.369 119.894 201.847C118.937 202.326 117.794 202.565 116.465 202.565C114.339 202.565 112.638 202.042 111.362 200.997C110.104 199.951 109.439 198.374 109.368 196.265H113.781C113.798 197.045 114.02 197.665 114.445 198.126C114.871 198.569 115.491 198.79 116.306 198.79C116.997 198.79 117.529 198.596 117.901 198.206C118.291 197.798 118.486 197.266 118.486 196.611C118.486 195.76 118.211 195.149 117.662 194.777C117.13 194.387 116.27 194.192 115.083 194.192H114.233V190.497H115.083C115.987 190.497 116.714 190.347 117.263 190.045C117.83 189.726 118.113 189.168 118.113 188.371C118.113 187.733 117.936 187.237 117.582 186.882C117.227 186.528 116.74 186.35 116.12 186.35C115.446 186.35 114.941 186.554 114.605 186.962C114.286 187.369 114.1 187.874 114.047 188.477H109.607ZM109.448 232.438C109.448 229.39 110.033 226.988 111.202 225.234C112.39 223.48 114.295 222.603 116.917 222.603C119.54 222.603 121.436 223.48 122.606 225.234C123.793 226.988 124.387 229.39 124.387 232.438C124.387 235.521 123.793 237.94 122.606 239.694C121.436 241.449 119.54 242.326 116.917 242.326C114.295 242.326 112.39 241.449 111.202 239.694C110.033 237.94 109.448 235.521 109.448 232.438ZM119.921 232.438C119.921 230.648 119.726 229.274 119.336 228.317C118.946 227.343 118.14 226.856 116.917 226.856C115.695 226.856 114.888 227.343 114.498 228.317C114.109 229.274 113.914 230.648 113.914 232.438C113.914 233.643 113.985 234.644 114.126 235.441C114.268 236.221 114.552 236.859 114.977 237.355C115.42 237.834 116.067 238.073 116.917 238.073C117.768 238.073 118.406 237.834 118.831 237.355C119.274 236.859 119.567 236.221 119.708 235.441C119.85 234.644 119.921 233.643 119.921 232.438Z" fill="white"/>
</svg>
