<svg width="389" height="292" viewBox="0 0 389 292" fill="none" xmlns="http://www.w3.org/2000/svg">
<path d="M303.463 46.424H229.763V126.427H303.463V46.424Z" fill="#E6E6E6"/>
<path d="M253.926 56.3785H241.107V69.1577H253.926V56.3785Z" fill="#A8A8A8"/>
<path d="M244.834 62.8985L246.658 65.6458L249.986 60.7122" stroke="white" stroke-width="3.43113" stroke-linecap="round" stroke-linejoin="round"/>
<path d="M290.587 60.5673H260.893V65.6461H290.587V60.5673Z" fill="white"/>
<path d="M253.926 79.6151H241.107V92.3943H253.926V79.6151Z" fill="#A8A8A8"/>
<path d="M244.834 86.1353L246.658 88.8827L249.986 83.949" stroke="white" stroke-width="3.43113" stroke-linecap="round" stroke-linejoin="round"/>
<path d="M290.587 83.8039H260.893V88.8827H290.587V83.8039Z" fill="white"/>
<path d="M253.926 101.324H241.107V114.103H253.926V101.324Z" fill="#A8A8A8"/>
<path d="M244.834 107.834L246.658 110.591L249.986 105.648" stroke="white" stroke-width="3.43113" stroke-linecap="round" stroke-linejoin="round"/>
<path d="M290.587 105.503H260.893V110.581H290.587V105.503Z" fill="white"/>
<path d="M303.463 170.83H229.763V220.777H303.463V170.83Z" fill="#E6E6E6"/>
<path opacity="0.08" d="M229.763 85.9999C229.763 85.9999 256.245 104.38 256.817 126.417H241.107L229.763 85.9999Z" fill="black"/>
<path d="M187.358 87.5187L163.293 106.596C163.293 106.596 140.722 129.165 154.89 143.937C169.057 158.709 189.697 137.117 189.697 137.117L187.358 87.5187Z" fill="#00F9DB"/>
<path opacity="0.08" d="M187.358 87.5187L163.293 106.596C163.293 106.596 140.722 129.165 154.89 143.937C169.057 158.709 189.697 137.117 189.697 137.117L187.358 87.5187Z" fill="black"/>
<path d="M161.006 94.5022L158.824 96.2117L169.921 110.291L172.104 108.582L161.006 94.5022Z" fill="#24285B"/>
<path d="M163.294 106.596C163.294 106.596 167.039 102.184 170.406 103.635C173.773 105.087 172.881 111.762 167.02 111.878C161.159 111.994 163.294 106.596 163.294 106.596Z" fill="#F4A28C"/>
<path opacity="0.45" d="M249.986 245.616C250.016 238.521 217.222 232.633 176.739 232.464C136.256 232.294 103.414 237.909 103.384 245.004C103.354 252.099 136.148 257.988 176.631 258.157C217.114 258.326 249.956 252.712 249.986 245.616Z" fill="#E6E6E6"/>
<path d="M186.689 239.747C186.689 239.747 185.185 242.581 182.439 242.426C179.693 242.272 178.557 244.806 180.944 245.841C183.331 246.876 190.017 244.661 190.017 244.661L190.512 239.669L186.689 239.747Z" fill="#00F9DB"/>
<path d="M198.692 57.965C198.692 57.965 198.178 63.6629 199.129 67.4551C199.323 68.1921 199.801 68.8234 200.458 69.2125C201.115 69.6017 201.9 69.7175 202.642 69.535C203.851 69.3083 204.968 68.7373 205.858 67.8909C206.749 67.0445 207.374 65.959 207.659 64.7657L209.386 59.774C209.626 58.7399 209.539 57.6568 209.136 56.6743C208.732 55.6918 208.033 54.8584 207.135 54.2889C203.874 51.9865 198.828 54.4824 198.692 57.965Z" fill="#F4A28C"/>
<path d="M209.046 60.6832L211.958 79.1991L201.604 80.0697L203.651 66.2457L209.046 60.6832Z" fill="#F4A28C"/>
<path d="M204.748 62.8794C204.748 62.8794 204.796 60.6737 206.456 60.8479C208.115 61.022 208.066 64.2047 205.805 64.4949L204.748 62.8794Z" fill="#F4A28C"/>
<path d="M198.556 61.5733L196.984 63.7693C196.905 63.8974 196.857 64.0422 196.844 64.1922C196.831 64.3421 196.853 64.4931 196.908 64.6331C196.964 64.773 197.051 64.8981 197.164 64.9984C197.277 65.0987 197.411 65.1714 197.557 65.2107L199.75 65.6267L198.556 61.5733Z" fill="#F4A28C"/>
<path opacity="0.31" d="M203.069 69.2545C204.363 68.9342 205.534 68.2411 206.436 67.2617C206.436 67.2617 206.281 70.696 202.496 74.0334L203.069 69.2545Z" fill="#CE8172"/>
<path d="M213.481 79.2087L200.594 80.2922C200.594 80.2922 175.073 87.7797 176.102 111.713C177.131 135.646 179.45 164.968 179.45 164.968L213.801 169.447C213.801 169.447 270.917 91.9589 213.481 79.2087Z" fill="#00F9DB"/>
<path opacity="0.08" d="M218.925 94.5514C218.925 94.5514 206.785 100.52 207.659 115.07C208.532 129.619 206.096 134.843 191.036 133.16C175.976 131.477 177.567 137.997 177.567 137.997L179.508 164.958L213.859 169.437L216.955 164.958C216.955 164.958 244.436 114.76 218.925 94.5514Z" fill="black"/>
<path d="M179.45 164.968L170.222 172.62C167.735 174.684 165.789 177.32 164.55 180.3C163.312 183.281 162.818 186.516 163.111 189.729C163.404 192.942 164.475 196.036 166.233 198.744C167.99 201.453 170.382 203.695 173.201 205.279L190.891 215.214L196.771 210.948L183.535 199.997C182.682 199.291 182.009 198.393 181.572 197.376C181.135 196.36 180.946 195.255 181.021 194.152C181.096 193.049 181.432 191.979 182.003 191.031C182.573 190.083 183.361 189.283 184.302 188.698L189.018 185.796C191.635 184.157 194.579 183.104 197.644 182.71C202.749 182.062 211.23 179.469 213.801 169.476L179.45 164.968Z" fill="#24285B"/>
<path d="M198.557 50.6324C198.557 50.6324 195.306 58.5553 201.604 59.1938C207.901 59.8323 203.923 64.1372 207.63 64.766C211.337 65.3948 215.577 56.4174 211.958 51.919C208.338 47.4207 200.362 46.995 198.557 50.6324Z" fill="#24285B"/>
<path d="M213.801 169.447L190.513 239.67L184.69 239.612C184.69 239.612 192.638 192.751 191.774 173.065L213.801 169.447Z" fill="#24285B"/>
<path d="M214.782 99.2337C214.554 97.2999 214.931 95.3433 215.86 93.6307C216.789 91.9181 218.226 90.533 219.973 89.6644C221.721 88.7957 223.696 88.4859 225.627 88.7771C227.558 89.0683 229.352 89.9463 230.764 91.2914C237.43 97.5601 244.475 107.66 246.289 123.08C250.035 154.317 239.012 185.041 190.522 135.404L195.452 129.706C195.452 129.706 219.546 146.297 226.678 143.453C232.151 141.286 216.975 118.833 214.782 99.2337Z" fill="#00F9DB"/>
<path opacity="0.46" d="M214.782 99.2337C214.554 97.2999 214.931 95.3433 215.86 93.6307C216.789 91.9181 218.226 90.533 219.973 89.6644C221.721 88.7957 223.696 88.4859 225.627 88.7771C227.558 89.0683 229.352 89.9463 230.764 91.2914C237.43 97.5601 244.475 107.66 246.289 123.08C250.035 154.317 239.012 185.041 190.522 135.404L195.452 129.706C195.452 129.706 219.546 146.297 226.678 143.453C232.151 141.286 216.975 118.833 214.782 99.2337Z" fill="white"/>
<path opacity="0.58" d="M147.806 235.007C147.806 235.007 156.2 232.753 158.053 224.985C158.053 224.985 145.08 222.315 144.653 235.626L147.806 235.007Z" fill="#00F9DB"/>
<path opacity="0.73" d="M146.787 234.175C146.787 234.175 152.678 224.965 147.564 216.317C147.564 216.317 137.656 222.528 141.994 234.175H146.787Z" fill="#00F9DB"/>
<path d="M145.274 234.175C145.274 234.175 142.217 224.414 132.872 222.566C132.872 222.566 131.097 228.883 138.879 234.175H145.274Z" fill="#00F9DB"/>
<path d="M151.348 233.982L149.611 245.561H138.908L137.375 233.982H151.348Z" fill="#24285B"/>
<path d="M188.809 105.803L163.278 109.023L167.992 146.174L193.523 142.955L188.809 105.803Z" fill="#FFD200"/>
<path d="M191.832 133.934C191.832 133.934 181.857 129.097 184.283 125.518C186.709 121.938 195.49 129.706 195.49 129.706L191.832 133.934Z" fill="#F4A28C"/>
<path d="M117.152 88.6892C127.908 88.6892 136.628 79.9966 136.628 69.2737C136.628 58.5508 127.908 49.8582 117.152 49.8582C106.396 49.8582 97.677 58.5508 97.677 69.2737C97.677 79.9966 106.396 88.6892 117.152 88.6892Z" fill="#E6E6E6"/>
<path d="M117.153 83.001C124.758 83.001 130.922 76.8551 130.922 69.2737C130.922 61.6924 124.758 55.5464 117.153 55.5464C109.548 55.5464 103.383 61.6924 103.383 69.2737C103.383 76.8551 109.548 83.001 117.153 83.001Z" fill="white"/>
<path d="M117.152 61.3894V70.6086L124.74 69.5251" stroke="#C1C1C1" stroke-width="3.43113" stroke-linecap="round" stroke-linejoin="round"/>
<path d="M117.152 141.267C127.908 141.267 136.628 132.574 136.628 121.851C136.628 111.129 127.908 102.436 117.152 102.436C106.396 102.436 97.677 111.129 97.677 121.851C97.677 132.574 106.396 141.267 117.152 141.267Z" fill="#E6E6E6"/>
<path d="M117.153 135.579C124.758 135.579 130.922 129.433 130.922 121.851C130.922 114.27 124.758 108.124 117.153 108.124C109.548 108.124 103.383 114.27 103.383 121.851C103.383 129.433 109.548 135.579 117.153 135.579Z" fill="white"/>
<path d="M117.152 113.967V123.186L124.74 122.093" stroke="#C1C1C1" stroke-width="3.43113" stroke-linecap="round" stroke-linejoin="round"/>
<path opacity="0.08" d="M239.574 185.118C241.273 185.118 242.65 183.745 242.65 182.052C242.65 180.358 241.273 178.985 239.574 178.985C237.875 178.985 236.498 180.358 236.498 182.052C236.498 183.745 237.875 185.118 239.574 185.118Z" fill="black"/>
<path opacity="0.08" d="M239.574 198.314C241.273 198.314 242.65 196.941 242.65 195.247C242.65 193.554 241.273 192.181 239.574 192.181C237.875 192.181 236.498 193.554 236.498 195.247C236.498 196.941 237.875 198.314 239.574 198.314Z" fill="black"/>
<path opacity="0.08" d="M239.574 211.509C241.273 211.509 242.65 210.136 242.65 208.442C242.65 206.749 241.273 205.376 239.574 205.376C237.875 205.376 236.498 206.749 236.498 208.442C236.498 210.136 237.875 211.509 239.574 211.509Z" fill="black"/>
<path d="M250.947 182.052H287.297" stroke="white" stroke-width="3.43113" stroke-linecap="round" stroke-linejoin="bevel"/>
<path d="M250.947 195.247H287.297" stroke="white" stroke-width="3.43113" stroke-linecap="round" stroke-linejoin="bevel"/>
<path d="M250.947 208.442H287.297" stroke="white" stroke-width="3.43113" stroke-linecap="round" stroke-linejoin="bevel"/>
<path d="M134.493 167.667H99.8022V195.034H134.493V167.667Z" fill="#E6E6E6"/>
<path d="M134.493 162.521H99.8022V171.566H134.493V162.521Z" fill="#C1C1C1"/>
<path d="M107.847 157.819H104.887V165.316H107.847V157.819Z" fill="#E6E6E6"/>
<path d="M129.311 157.741H126.351V165.239H129.311V157.741Z" fill="#E6E6E6"/>
<path d="M109.649 188.537C109.72 186.641 110.34 185.178 111.51 184.15C112.68 183.122 114.267 182.607 116.27 182.607C117.6 182.607 118.734 182.838 119.674 183.299C120.631 183.76 121.349 184.389 121.828 185.187C122.324 185.985 122.572 186.88 122.572 187.873C122.572 189.043 122.28 190 121.695 190.744C121.11 191.471 120.427 191.968 119.647 192.234V192.34C120.658 192.677 121.455 193.235 122.04 194.015C122.625 194.795 122.918 195.797 122.918 197.02C122.918 198.119 122.661 199.094 122.147 199.945C121.65 200.778 120.915 201.434 119.94 201.913C118.982 202.391 117.839 202.631 116.509 202.631C114.382 202.631 112.68 202.108 111.404 201.062C110.145 200.016 109.48 198.438 109.41 196.329H113.824C113.841 197.109 114.063 197.729 114.488 198.19C114.914 198.633 115.534 198.855 116.35 198.855C117.041 198.855 117.573 198.66 117.945 198.27C118.335 197.862 118.53 197.33 118.53 196.674C118.53 195.823 118.256 195.212 117.706 194.839C117.174 194.449 116.314 194.254 115.127 194.254H114.276V190.558H115.127C116.031 190.558 116.758 190.408 117.307 190.106C117.874 189.787 118.158 189.229 118.158 188.431C118.158 187.793 117.981 187.296 117.626 186.942C117.272 186.587 116.784 186.41 116.164 186.41C115.49 186.41 114.985 186.614 114.648 187.022C114.329 187.429 114.143 187.935 114.09 188.537H109.649ZM109.489 232.499C109.489 229.45 110.074 227.048 111.244 225.293C112.432 223.538 114.338 222.661 116.961 222.661C119.585 222.661 121.482 223.538 122.652 225.293C123.84 227.048 124.434 229.45 124.434 232.499C124.434 235.584 123.84 238.004 122.652 239.759C121.482 241.514 119.585 242.391 116.961 242.391C114.338 242.391 112.432 241.514 111.244 239.759C110.074 238.004 109.489 235.584 109.489 232.499ZM119.966 232.499C119.966 230.709 119.771 229.335 119.381 228.378C118.991 227.403 118.185 226.915 116.961 226.915C115.738 226.915 114.932 227.403 114.542 228.378C114.152 229.335 113.957 230.709 113.957 232.499C113.957 233.705 114.028 234.707 114.169 235.504C114.311 236.284 114.595 236.922 115.02 237.419C115.464 237.897 116.111 238.137 116.961 238.137C117.812 238.137 118.451 237.897 118.876 237.419C119.319 236.922 119.612 236.284 119.754 235.504C119.895 234.707 119.966 233.705 119.966 232.499Z" fill="white"/>
</svg>
