<svg width="388" height="292" viewBox="0 0 388 292" fill="none" xmlns="http://www.w3.org/2000/svg">
<path d="M269.282 210.559C264.839 209.089 252.646 200.385 240.842 191.972C230.55 184.633 219.909 177.042 215.069 174.74C206.921 170.872 202.459 171.278 201.033 171.578L216.204 184.149L215.583 184.894L203.7 175.117C205.466 178.502 208.24 184.836 206.61 188.443C206.277 189.149 205.766 189.757 205.127 190.208C204.488 190.659 203.742 190.937 202.963 191.015C202.35 191.167 201.706 191.152 201.101 190.972C200.495 190.792 199.949 190.452 199.52 189.99C198.045 188.336 197.909 185.019 198.239 181.79C196.852 185.145 194.961 188.423 192.671 189.129C192.031 189.307 191.354 189.304 190.716 189.121C190.077 188.938 189.502 188.583 189.053 188.095C187.113 186.364 186.366 184.468 186.706 182.457C187.763 176.297 199.199 171.268 200.121 170.853C200.315 170.775 204.971 168.919 215.437 173.908C220.355 176.239 230.56 183.521 241.356 191.228C253.102 199.602 265.237 208.257 269.544 209.679L269.282 210.559ZM200.305 175.746C199.432 179.372 198.016 186.837 200.247 189.332C200.568 189.673 200.976 189.92 201.427 190.046C201.879 190.172 202.356 190.173 202.808 190.048C203.427 189.995 204.021 189.781 204.532 189.429C205.042 189.076 205.451 188.596 205.718 188.037C207.784 183.511 201.673 173.425 201.615 173.328L200.645 171.704H200.548C200.431 171.704 188.656 176.809 187.676 182.563C187.385 184.256 188.054 185.812 189.723 187.331C190.048 187.702 190.471 187.977 190.943 188.124C191.416 188.271 191.92 188.284 192.4 188.162C195.436 187.195 198.045 180.107 199.316 175.649C199.607 174.392 199.859 173.541 199.898 173.415L200.868 173.657C200.79 173.812 200.625 174.614 200.305 175.746Z" fill="#24285B"/>
<path d="M147.828 243.35C147.828 243.35 149.419 246.696 152.591 246.658C155.763 246.619 156.888 249.559 154.143 250.68C151.398 251.802 143.735 248.833 143.735 248.833L143.434 243.031L147.828 243.35Z" fill="#00F9DB"/>
<path d="M115.314 243.35C115.314 243.35 113.723 246.696 110.551 246.658C107.379 246.619 106.254 249.559 109.009 250.68C111.764 251.802 119.417 248.833 119.417 248.833L119.718 243.031L115.314 243.35Z" fill="#00F9DB"/>
<path opacity="0.39" d="M195.222 261.579C268.803 261.579 328.452 256.414 328.452 250.042C328.452 243.671 268.803 238.506 195.222 238.506C121.642 238.506 61.9927 243.671 61.9927 250.042C61.9927 256.414 121.642 261.579 195.222 261.579Z" fill="#E6E6E6"/>
<path d="M131.697 73.3477C131.697 73.3477 161.767 77.0997 160.739 118.005C159.711 158.91 197.056 167.042 197.056 167.042L193.098 176.452C193.098 176.452 164.619 171.733 148.274 144.076C131.93 116.419 131.697 73.3477 131.697 73.3477Z" fill="#00F9DB"/>
<path opacity="0.44" d="M131.697 73.3477C131.697 73.3477 161.767 77.0997 160.739 118.005C159.711 158.91 197.056 167.042 197.056 167.042L193.098 176.452C193.098 176.452 164.619 171.733 148.274 144.076C131.93 116.419 131.697 73.3477 131.697 73.3477Z" fill="white"/>
<path d="M124.461 51.7153L118.854 72.603L130.62 74.8659L129.98 58.7553L124.461 51.7153Z" fill="#F4A28C"/>
<path opacity="0.31" d="M130.271 62.2753C128.829 61.7487 127.571 60.8145 126.653 59.587C126.653 59.587 126.41 63.5421 130.339 67.8744L130.271 62.2753Z" fill="#CE8172"/>
<path d="M117.972 72.3516L132.89 73.5991C132.89 73.5991 162.359 82.2346 161.176 109.853C159.992 137.471 157.296 171.297 157.296 171.297L117.661 176.471C117.661 176.471 51.7209 87.06 117.972 72.3516Z" fill="#00F9DB"/>
<path opacity="0.08" d="M109.93 87.9787C109.93 87.9787 125.722 96.943 124.732 113.731C123.743 130.518 119.746 149.578 137.129 147.634C154.511 145.691 159.439 140.188 159.439 140.188L157.237 171.297L117.603 176.471L114.033 171.297C114.033 171.297 80.51 111.352 109.93 87.9787Z" fill="black"/>
<path d="M174.933 119.143L185.029 122.401L190.918 104.268L180.822 101.009L174.933 119.143Z" fill="#FFD200"/>
<path d="M173.911 127.723C173.911 127.723 183.369 121.012 181.051 116.815C178.732 112.618 169.411 122.25 169.411 122.25L173.911 127.723Z" fill="#F4A28C"/>
<path d="M117.622 176.471L157.256 171.297L149.758 243.824H140.514C140.514 243.824 141.203 206.632 135.577 195.599C129.951 184.565 117.622 176.471 117.622 176.471Z" fill="#24285B"/>
<path d="M117.622 176.471L111.802 243.805H121.929C121.929 243.805 128.981 192.775 147.149 179.614L117.622 176.471Z" fill="#24285B"/>
<path d="M136.857 52.1117C136.857 52.1117 135.131 58.4844 132.58 62.2074C132.332 62.5675 132.015 62.8753 131.648 63.113C131.28 63.3508 130.869 63.5139 130.439 63.5929C130.008 63.672 129.566 63.6655 129.137 63.5738C128.709 63.482 128.303 63.3069 127.943 63.0584C126.081 61.7529 123.937 59.4514 124.451 55.9218L124.577 49.8296C124.732 48.6135 125.26 47.4751 126.091 46.5711C126.921 45.6671 128.012 45.0419 129.214 44.7817C133.647 43.5439 138.099 48.2823 136.857 52.1117Z" fill="#F4A28C"/>
<path d="M135.218 51.8022C133.271 51.1769 131.403 50.33 129.65 49.2783C129.896 50.3227 129.829 51.4159 129.458 52.4229C129.088 53.4299 128.43 54.3067 127.565 54.9451C126.74 55.5802 125.719 55.91 124.677 55.8783C123.635 55.8465 122.636 55.4551 121.852 54.771L124.878 46.8414C125.275 45.6964 125.974 44.6787 126.9 43.8946C127.827 43.1104 128.947 42.5886 130.145 42.3834C131.185 42.2092 132.234 42.0994 133.288 42.0546C135.926 41.9773 138.739 44.7333 141.368 43.9887C141.632 43.9094 141.912 43.8997 142.18 43.9606C142.449 44.0215 142.697 44.1509 142.9 44.3361C143.104 44.5213 143.255 44.756 143.34 45.0172C143.425 45.2783 143.441 45.557 143.386 45.826C142.852 48.379 141.019 52.0343 137.245 52.16C136.554 52.1576 135.868 52.0366 135.218 51.8022Z" fill="#24285B"/>
<path d="M128.302 55.0031C128.302 55.0031 129.127 52.6049 127.264 52.102C125.402 51.5992 124.18 55.0998 126.508 56.3086L128.302 55.0031Z" fill="#F4A28C"/>
<path d="M135.558 56.067L136.411 59.0841C136.459 59.2555 136.462 59.436 136.422 59.6092C136.381 59.7824 136.298 59.9427 136.179 60.0754C136.061 60.2082 135.911 60.3091 135.743 60.3691C135.575 60.429 135.394 60.4461 135.218 60.4186L132.677 59.9931L135.558 56.067Z" fill="#F4A28C"/>
<path d="M111.056 90.4349C110.48 88.5964 109.408 86.9512 107.957 85.6793C106.506 84.4074 104.732 83.5578 102.83 83.2234C100.927 82.8889 98.9687 83.0826 97.169 83.7831C95.3693 84.4836 93.7975 85.6641 92.6256 87.1953C88.2703 92.8718 84.4679 101.285 85.4961 113.112C87.7271 138.544 95.6035 167.922 113.626 164.219C131.649 160.515 175.532 129.657 175.532 129.657L169.508 122.25C169.508 122.25 132.696 142.248 118.903 140.024C107.67 138.225 117.37 110.762 111.056 90.4349Z" fill="#00F9DB"/>
<path opacity="0.44" d="M111.056 90.4349C110.48 88.5964 109.408 86.9512 107.957 85.6793C106.506 84.4074 104.732 83.5578 102.83 83.2234C100.927 82.8889 98.9687 83.0826 97.169 83.7831C95.3693 84.4836 93.7975 85.6641 92.6256 87.1953C88.2703 92.8718 84.4679 101.285 85.4961 113.112C87.7271 138.544 95.6035 167.922 113.626 164.219C131.649 160.515 175.532 129.657 175.532 129.657L169.508 122.25C169.508 122.25 132.696 142.248 118.903 140.024C107.67 138.225 117.37 110.762 111.056 90.4349Z" fill="white"/>
<path d="M219.298 49.2203H176.337V82.5729H219.298V49.2203Z" fill="#E6E6E6"/>
<path d="M270.058 204.389C270.058 204.389 273.647 199.389 279.477 201.546C284.327 203.345 286.315 207.464 290.253 207.232C290.639 207.213 291.023 207.28 291.379 207.427C291.736 207.575 292.054 207.801 292.312 208.087C292.569 208.374 292.759 208.714 292.868 209.083C292.977 209.452 293.001 209.84 292.94 210.22C292.552 212.531 291.136 214.862 286.761 213.73C278.885 211.671 281.853 219.958 274.694 216.728C267.536 213.498 265.906 210.897 270.058 204.389Z" fill="#24285B"/>
<path d="M272.473 205.279L267.09 196.102L275.674 202.871L272.473 205.279Z" fill="#24285B"/>
<path d="M275.121 203.847L273.423 193.355L278.981 202.745L275.121 203.847Z" fill="#24285B"/>
<path d="M278.826 206.197C279.405 206.197 279.874 205.73 279.874 205.153C279.874 204.576 279.405 204.109 278.826 204.109C278.248 204.109 277.779 204.576 277.779 205.153C277.779 205.73 278.248 206.197 278.826 206.197Z" fill="white"/>
<path d="M268.361 207.59L280.796 216.98L277.818 220.335L265.14 211.023L268.361 207.59Z" fill="#FFD200"/>
<path d="M265.14 211.023C265.14 211.023 254.625 220.915 241.918 217.482C229.211 214.049 223.546 225.373 227.863 230.769C232.179 236.165 283.153 244.395 277.818 220.335" fill="#24285B"/>
<path d="M233.441 223.816C233.441 223.816 216.048 223.575 216.456 201.004C216.456 201.004 203.4 226.147 233.441 228.158V223.816Z" fill="#24285B"/>
<path d="M246.729 230.044C246.729 230.044 251.327 241.358 239.163 241.648C227 241.938 229.968 249.384 229.968 249.384H226.427C226.427 249.384 224.313 240.788 229.444 238.534C234.575 236.281 227.863 230.798 227.863 230.798C227.863 230.798 235.38 217.647 246.729 230.044Z" fill="#24285B"/>
<path d="M278.206 223.816L279.176 229.154C279.936 233.207 282.124 236.856 285.345 239.443L290.748 243.785L289.438 245.371L278.254 240.488C276.76 239.838 275.515 238.726 274.704 237.316L269.437 228.168L278.206 223.816Z" fill="#24285B"/>
<path d="M276.945 226.63L274.462 231.466C272.572 235.132 272.063 239.352 273.026 243.36L274.627 250.129L272.59 250.545L266.77 239.908C265.993 238.481 265.694 236.845 265.916 235.237L267.361 224.783L276.945 226.63Z" fill="#24285B"/>
<path d="M254.062 233.312C254.062 233.312 254.77 240.178 250.619 243.95C246.467 247.721 247.166 250.554 247.166 250.554H244.13C243.755 249.03 243.755 247.437 244.13 245.913C244.447 244.462 244.437 242.96 244.102 241.513C243.766 240.067 243.113 238.712 242.19 237.548L239.386 233.941L254.062 233.312Z" fill="#24285B"/>
<path d="M196.435 168.551C196.435 168.551 206.843 167.429 206.6 172.612C206.358 177.796 194.116 174.053 194.116 174.053L196.435 168.551Z" fill="#F4A28C"/>
<path d="M203.748 67.2167H203.613V62.1495C203.609 60.9337 203.137 59.7659 202.294 58.8875C201.45 58.0091 200.301 57.4875 199.083 57.4304C199.253 57.2924 199.39 57.1184 199.483 56.921C199.577 56.7236 199.626 56.5078 199.626 56.2893C199.629 56.0327 199.567 55.7795 199.446 55.5533C199.324 55.3271 199.147 55.1352 198.931 54.9957C198.715 54.8561 198.467 54.7734 198.211 54.7553C197.954 54.7372 197.697 54.7842 197.463 54.8921C197.23 54.9999 197.027 55.1649 196.875 55.3718C196.723 55.5787 196.626 55.8207 196.593 56.0752C196.56 56.3297 196.592 56.5883 196.686 56.827C196.781 57.0657 196.935 57.2766 197.133 57.4401C195.921 57.5019 194.779 58.0247 193.941 58.9007C193.104 59.7768 192.636 60.9395 192.632 62.1495V67.2167C192.178 67.2192 191.742 67.4004 191.421 67.7208C191.1 68.0412 190.918 68.4751 190.915 68.9283V69.4602C190.918 69.9133 191.1 70.3472 191.421 70.6677C191.742 70.9881 192.178 71.1693 192.632 71.1718H203.748C204.204 71.1718 204.64 70.9915 204.962 70.6705C205.284 70.3495 205.465 69.9141 205.465 69.4602V68.9283C205.465 68.7035 205.421 68.4809 205.335 68.2733C205.248 68.0656 205.122 67.8769 204.962 67.718C204.803 67.5591 204.614 67.433 204.405 67.347C204.197 67.2609 203.974 67.2167 203.748 67.2167Z" fill="#C1C1C1"/>
<path d="M196.057 72.1678C195.956 72.4235 195.903 72.6956 195.902 72.9704C195.882 73.2716 195.924 73.5736 196.026 73.8579C196.127 74.1421 196.287 74.4025 196.494 74.6229C196.7 74.8433 196.951 75.019 197.228 75.1391C197.506 75.2592 197.806 75.3212 198.108 75.3212C198.411 75.3212 198.711 75.2592 198.988 75.1391C199.266 75.019 199.516 74.8433 199.723 74.6229C199.93 74.4025 200.089 74.1421 200.191 73.8579C200.293 73.5736 200.335 73.2716 200.315 72.9704C200.315 72.6945 200.259 72.4215 200.15 72.1678H196.057Z" fill="#C1C1C1"/>
<path d="M181.419 80.0878L184.941 93.0943L188.268 80.0878H181.419Z" fill="#E6E6E6"/>
<path d="M218.667 88.9651C222.701 88.9651 225.971 85.705 225.971 81.6834C225.971 77.6619 222.701 74.4017 218.667 74.4017C214.633 74.4017 211.363 77.6619 211.363 81.6834C211.363 85.705 214.633 88.9651 218.667 88.9651Z" fill="#24285B"/>
<path d="M219.967 78.3182V85.0873H218.541V79.672L216.989 80.639V79.3722L218.657 78.3182H219.967Z" fill="white"/>
</svg>
